<svg width="1186" height="571" viewBox="0 0 1186 571" fill="none" xmlns="http://www.w3.org/2000/svg">
<rect width="1186" height="571" rx="26" fill="#242424"/>
<path d="M499.363 285H493.615L471.782 251.581V285H466.034V241.633H471.782L493.674 275.201V241.633H499.363V285ZM507.197 268.588C507.197 265.431 507.812 262.592 509.043 260.07C510.294 257.548 512.022 255.602 514.226 254.232C516.45 252.862 518.982 252.177 521.821 252.177C526.21 252.177 529.754 253.696 532.455 256.734C535.175 259.772 536.535 263.813 536.535 268.856V269.244C536.535 272.381 535.93 275.201 534.718 277.703C533.527 280.185 531.809 282.121 529.565 283.511C527.341 284.901 524.78 285.596 521.881 285.596C517.512 285.596 513.968 284.077 511.248 281.039C508.547 278 507.197 273.979 507.197 268.976V268.588ZM512.737 269.244C512.737 272.818 513.561 275.687 515.209 277.852C516.877 280.016 519.101 281.098 521.881 281.098C524.681 281.098 526.905 280.006 528.553 277.822C530.201 275.618 531.025 272.54 531.025 268.588C531.025 265.054 530.181 262.194 528.493 260.01C526.825 257.806 524.601 256.704 521.821 256.704C519.101 256.704 516.907 257.786 515.239 259.951C513.571 262.115 512.737 265.213 512.737 269.244ZM565.576 285H559.857V241.633H565.576V285ZM580.379 252.772L580.528 256.347C582.891 253.567 586.078 252.177 590.089 252.177C594.596 252.177 597.664 253.904 599.292 257.359C600.365 255.811 601.755 254.56 603.462 253.606C605.19 252.653 607.225 252.177 609.568 252.177C616.637 252.177 620.231 255.92 620.351 263.406V285H614.84V263.733C614.84 261.43 614.314 259.712 613.262 258.581C612.209 257.429 610.442 256.853 607.96 256.853C605.915 256.853 604.217 257.469 602.867 258.7C601.516 259.911 600.732 261.549 600.514 263.614V285H594.974V263.882C594.974 259.196 592.68 256.853 588.093 256.853C584.479 256.853 582.007 258.392 580.677 261.47V285H575.167V252.772H580.379ZM648.587 285C648.269 284.365 648.011 283.233 647.812 281.604C645.251 284.265 642.193 285.596 638.639 285.596C635.462 285.596 632.85 284.702 630.805 282.915C628.78 281.108 627.767 278.825 627.767 276.064C627.767 272.709 629.038 270.107 631.58 268.261C634.141 266.394 637.735 265.461 642.362 265.461H647.723V262.929C647.723 261.003 647.147 259.474 645.996 258.342C644.844 257.191 643.146 256.615 640.902 256.615C638.937 256.615 637.288 257.111 635.958 258.104C634.628 259.097 633.962 260.298 633.962 261.708H628.422C628.422 260.1 628.988 258.551 630.12 257.062C631.272 255.552 632.821 254.361 634.767 253.487C636.732 252.614 638.887 252.177 641.23 252.177C644.943 252.177 647.852 253.11 649.957 254.977C652.062 256.823 653.154 259.375 653.233 262.631V277.464C653.233 280.423 653.611 282.776 654.365 284.523V285H648.587ZM639.443 280.8C641.17 280.8 642.809 280.354 644.357 279.46C645.906 278.566 647.028 277.405 647.723 275.975V269.363H643.404C636.653 269.363 633.277 271.339 633.277 275.29C633.277 277.018 633.853 278.368 635.005 279.341C636.157 280.314 637.636 280.8 639.443 280.8ZM660.561 268.618C660.561 263.594 661.722 259.603 664.045 256.645C666.369 253.666 669.446 252.177 673.279 252.177C677.21 252.177 680.278 253.567 682.482 256.347L682.75 252.772H687.784V284.226C687.784 288.396 686.543 291.682 684.061 294.084C681.599 296.487 678.283 297.688 674.113 297.688C671.79 297.688 669.516 297.192 667.292 296.199C665.068 295.206 663.37 293.846 662.199 292.119L665.058 288.812C667.421 291.731 670.31 293.191 673.726 293.191C676.406 293.191 678.491 292.436 679.98 290.927C681.49 289.418 682.244 287.293 682.244 284.553V281.783C680.04 284.325 677.032 285.596 673.219 285.596C669.446 285.596 666.389 284.077 664.045 281.039C661.722 278 660.561 273.86 660.561 268.618ZM666.101 269.244C666.101 272.877 666.845 275.737 668.334 277.822C669.824 279.887 671.909 280.919 674.589 280.919C678.064 280.919 680.616 279.341 682.244 276.184V261.47C680.556 258.392 678.025 256.853 674.649 256.853C671.968 256.853 669.873 257.896 668.364 259.98C666.855 262.065 666.101 265.153 666.101 269.244ZM709.498 285.596C705.129 285.596 701.575 284.166 698.834 281.307C696.094 278.427 694.724 274.585 694.724 269.78V268.767C694.724 265.57 695.33 262.721 696.541 260.219C697.772 257.697 699.48 255.731 701.664 254.321C703.868 252.892 706.251 252.177 708.812 252.177C713.002 252.177 716.259 253.557 718.582 256.317C720.905 259.077 722.067 263.028 722.067 268.171V270.465H700.234C700.314 273.642 701.237 276.213 703.004 278.179C704.792 280.125 707.055 281.098 709.795 281.098C711.741 281.098 713.389 280.701 714.74 279.907C716.09 279.112 717.271 278.06 718.284 276.75L721.65 279.371C718.949 283.521 714.899 285.596 709.498 285.596ZM708.812 256.704C706.589 256.704 704.722 257.518 703.213 259.146C701.704 260.755 700.771 263.019 700.413 265.938H716.557V265.521C716.398 262.721 715.643 260.556 714.293 259.027C712.943 257.479 711.116 256.704 708.812 256.704Z" fill="white" fill-opacity="0.53"/>
</svg>
